<svg xmlns="http://www.w3.org/2000/svg" xmlns:xlink="http://www.w3.org/1999/xlink">
  <symbol id="behance" viewBox="0 0 576 512">
    <path fill="currentColor" d="M232 237.2c31.8-15.2 48.4-38.2 48.4-74 0-70.6-52.6-87.8-113.3-87.8H0v354.4h171.8c64.4 0 124.9-30.9 124.9-102.9 0-44.5-21.1-77.4-64.7-89.7zM77.9 135.9H151c28.1 0 53.4 7.9 53.4 40.5 0 30.1-19.7 42.2-47.5 42.2h-79v-82.7zm83.3 233.7H77.9V272h84.9c34.3 0 56 14.3 56 50.6 0 35.8-25.9 47-57.6 47zm358.5-240.7H376V94h143.7v34.9zM576 305.2c0-75.9-44.4-139.2-124.9-139.2-78.2 0-131.3 58.8-131.3 135.8 0 79.9 50.3 134.7 131.3 134.7 61.3 0 101-27.6 120.1-86.3H509c-6.7 21.9-34.3 33.5-55.7 33.5-41.3 0-63-24.2-63-65.3h185.1c.3-4.2.6-8.7.6-13.2zM390.4 274c2.3-33.7 24.7-54.8 58.5-54.8 35.4 0 53.2 20.8 56.2 54.8H390.4z"></path>
  </symbol>
  <symbol id="deviantart" viewBox="0 0 320 512">
    <path fill="currentColor" d="M320 93.2l-98.2 179.1 7.4 9.5H320v127.7H159.1l-13.5 9.2-43.7 84c-.3 0-8.6 8.6-9.2 9.2H0v-93.2l93.2-179.4-7.4-9.2H0V102.5h156l13.5-9.2 43.7-84c.3 0 8.6-8.6 9.2-9.2H320v93.1z"></path>
  </symbol>
  <symbol id="github" viewBox="0 0 496 512">
    <path fill="currentColor" d="M165.9 397.4c0 2-2.3 3.6-5.2 3.6-3.3.3-5.6-1.3-5.6-3.6 0-2 2.3-3.6 5.2-3.6 3-.3 5.6 1.3 5.6 3.6zm-31.1-4.5c-.7 2 1.3 4.3 4.3 4.9 2.6 1 5.6 0 6.2-2s-1.3-4.3-4.3-5.2c-2.6-.7-5.5.3-6.2 2.3zm44.2-1.7c-2.9.7-4.9 2.6-4.6 4.9.3 2 2.9 3.3 5.9 2.6 2.9-.7 4.9-2.6 4.6-4.6-.3-1.9-3-3.2-5.9-2.9zM244.8 8C106.1 8 0 113.3 0 252c0 110.9 69.8 205.8 169.5 239.2 12.8 2.3 17.3-5.6 17.3-12.1 0-6.2-.3-40.4-.3-61.4 0 0-70 15-84.7-29.8 0 0-11.4-29.1-27.8-36.6 0 0-22.9-15.7 1.6-15.4 0 0 24.9 2 38.6 25.8 21.9 38.6 58.6 27.5 72.9 20.9 2.3-16 8.8-27.1 16-33.7-55.9-6.2-112.3-14.3-112.3-110.5 0-27.5 7.6-41.3 23.6-58.9-2.6-6.5-11.1-33.3 2.6-67.9 20.9-6.5 69 27 69 27 20-5.6 41.5-8.5 62.8-8.5s42.8 2.9 62.8 8.5c0 0 48.1-33.6 69-27 13.7 34.7 5.2 61.4 2.6 67.9 16 17.7 25.8 31.5 25.8 58.9 0 96.5-58.9 104.2-114.8 110.5 9.2 7.9 17 22.9 17 46.4 0 33.7-.3 75.4-.3 83.6 0 6.5 4.6 14.4 17.3 12.1C428.2 457.8 496 362.9 496 252 496 113.3 383.5 8 244.8 8zM97.2 352.9c-1.3 1-1 3.3.7 5.2 1.6 1.6 3.9 2.3 5.2 1 1.3-1 1-3.3-.7-5.2-1.6-1.6-3.9-2.3-5.2-1zm-10.8-8.1c-.7 1.3.3 2.9 2.3 3.9 1.6 1 3.6.7 4.3-.7.7-1.3-.3-2.9-2.3-3.9-2-.6-3.6-.3-4.3.7zm32.4 35.6c-1.6 1.3-1 4.3 1.3 6.2 2.3 2.3 5.2 2.6 6.5 1 1.3-1.3.7-4.3-1.3-6.2-2.2-2.3-5.2-2.6-6.5-1zm-11.4-14.7c-1.6 1-1.6 3.6 0 5.9 1.6 2.3 4.3 3.3 5.6 2.3 1.6-1.3 1.6-3.9 0-6.2-1.4-2.3-4-3.3-5.6-2z"></path>
  </symbol>
  <symbol id="youtube" viewBox="0 0 576 512">
    <path fill="currentColor" d="M549.655 124.083c-6.281-23.65-24.787-42.276-48.284-48.597C458.781 64 288 64 288 64S117.22 64 74.629 75.486c-23.497 6.322-42.003 24.947-48.284 48.597-11.412 42.867-11.412 132.305-11.412 132.305s0 89.438 11.412 132.305c6.281 23.65 24.787 41.5 48.284 47.821C117.22 448 288 448 288 448s170.78 0 213.371-11.486c23.497-6.321 42.003-24.171 48.284-47.821 11.412-42.867 11.412-132.305 11.412-132.305s0-89.438-11.412-132.305zm-317.51 213.508V175.185l142.739 81.205-142.739 81.201z"></path>
  </symbol>
  <symbol id="vimeo" viewBox="0 0 448 512">
    <path fill="currentColor" d="M447.8 153.6c-2 43.6-32.4 103.3-91.4 179.1-60.9 79.2-112.4 118.8-154.6 118.8-26.1 0-48.2-24.1-66.3-72.3C100.3 250 85.3 174.3 56.2 174.3c-3.4 0-15.1 7.1-35.2 21.1L0 168.2c51.6-45.3 100.9-95.7 131.8-98.5 34.9-3.4 56.3 20.5 64.4 71.5 28.7 181.5 41.4 208.9 93.6 126.7 18.7-29.6 28.8-52.1 30.2-67.6 4.8-45.9-35.8-42.8-63.3-31 22-72.1 64.1-107.1 126.2-105.1 45.8 1.2 67.5 31.1 64.9 89.4z"></path>
  </symbol>
  <symbol id="soundcloud" viewBox="0 0 640 512">
    <path fill="currentColor" d="M111.4 256.3l5.8 65-5.8 68.3c-.3 2.5-2.2 4.4-4.4 4.4s-4.2-1.9-4.2-4.4l-5.6-68.3 5.6-65c0-2.2 1.9-4.2 4.2-4.2 2.2 0 4.1 2 4.4 4.2zm21.4-45.6c-2.8 0-4.7 2.2-5 5l-5 105.6 5 68.3c.3 2.8 2.2 5 5 5 2.5 0 4.7-2.2 4.7-5l5.8-68.3-5.8-105.6c0-2.8-2.2-5-4.7-5zm25.5-24.1c-3.1 0-5.3 2.2-5.6 5.3l-4.4 130 4.4 67.8c.3 3.1 2.5 5.3 5.6 5.3 2.8 0 5.3-2.2 5.3-5.3l5.3-67.8-5.3-130c0-3.1-2.5-5.3-5.3-5.3zM7.2 283.2c-1.4 0-2.2 1.1-2.5 2.5L0 321.3l4.7 35c.3 1.4 1.1 2.5 2.5 2.5s2.2-1.1 2.5-2.5l5.6-35-5.6-35.6c-.3-1.4-1.1-2.5-2.5-2.5zm23.6-21.9c-1.4 0-2.5 1.1-2.5 2.5l-6.4 57.5 6.4 56.1c0 1.7 1.1 2.8 2.5 2.8s2.5-1.1 2.8-2.5l7.2-56.4-7.2-57.5c-.3-1.4-1.4-2.5-2.8-2.5zm25.3-11.4c-1.7 0-3.1 1.4-3.3 3.3L47 321.3l5.8 65.8c.3 1.7 1.7 3.1 3.3 3.1 1.7 0 3.1-1.4 3.1-3.1l6.9-65.8-6.9-68.1c0-1.9-1.4-3.3-3.1-3.3zm25.3-2.2c-1.9 0-3.6 1.4-3.6 3.6l-5.8 70 5.8 67.8c0 2.2 1.7 3.6 3.6 3.6s3.6-1.4 3.9-3.6l6.4-67.8-6.4-70c-.3-2.2-2-3.6-3.9-3.6zm241.4-110.9c-1.1-.8-2.8-1.4-4.2-1.4-2.2 0-4.2.8-5.6 1.9-1.9 1.7-3.1 4.2-3.3 6.7v.8l-3.3 176.7 1.7 32.5 1.7 31.7c.3 4.7 4.2 8.6 8.9 8.6s8.6-3.9 8.6-8.6l3.9-64.2-3.9-177.5c-.4-3-2-5.8-4.5-7.2zm-26.7 15.3c-1.4-.8-2.8-1.4-4.4-1.4s-3.1.6-4.4 1.4c-2.2 1.4-3.6 3.9-3.6 6.7l-.3 1.7-2.8 160.8s0 .3 3.1 65.6v.3c0 1.7.6 3.3 1.7 4.7 1.7 1.9 3.9 3.1 6.4 3.1 2.2 0 4.2-1.1 5.6-2.5 1.7-1.4 2.5-3.3 2.5-5.6l.3-6.7 3.1-58.6-3.3-162.8c-.3-2.8-1.7-5.3-3.9-6.7zm-111.4 22.5c-3.1 0-5.8 2.8-5.8 6.1l-4.4 140.6 4.4 67.2c.3 3.3 2.8 5.8 5.8 5.8 3.3 0 5.8-2.5 6.1-5.8l5-67.2-5-140.6c-.2-3.3-2.7-6.1-6.1-6.1zm376.7 62.8c-10.8 0-21.1 2.2-30.6 6.1-6.4-70.8-65.8-126.4-138.3-126.4-17.8 0-35 3.3-50.3 9.4-6.1 2.2-7.8 4.4-7.8 9.2v249.7c0 5 3.9 8.6 8.6 9.2h218.3c43.3 0 78.6-35 78.6-78.3.1-43.6-35.2-78.9-78.5-78.9zm-296.7-60.3c-4.2 0-7.5 3.3-7.8 7.8l-3.3 136.7 3.3 65.6c.3 4.2 3.6 7.5 7.8 7.5 4.2 0 7.5-3.3 7.5-7.5l3.9-65.6-3.9-136.7c-.3-4.5-3.3-7.8-7.5-7.8zm-53.6-7.8c-3.3 0-6.4 3.1-6.4 6.7l-3.9 145.3 3.9 66.9c.3 3.6 3.1 6.4 6.4 6.4 3.6 0 6.4-2.8 6.7-6.4l4.4-66.9-4.4-145.3c-.3-3.6-3.1-6.7-6.7-6.7zm26.7 3.4c-3.9 0-6.9 3.1-6.9 6.9L227 321.3l3.9 66.4c.3 3.9 3.1 6.9 6.9 6.9s6.9-3.1 6.9-6.9l4.2-66.4-4.2-141.7c0-3.9-3-6.9-6.9-6.9z"></path>
  </symbol>
  <symbol id="linkedin" viewBox="0 0 448 512">
    <path fill="currentColor" d="M100.28 448H7.4V148.9h92.88zM53.79 108.1C24.09 108.1 0 83.5 0 53.8a53.79 53.79 0 0 1 107.58 0c0 29.7-24.1 54.3-53.79 54.3zM447.9 448h-92.68V302.4c0-34.7-.7-79.2-48.29-79.2-48.29 0-55.69 37.7-55.69 76.7V448h-92.78V148.9h89.08v40.8h1.3c12.4-23.5 42.69-48.3 87.88-48.3 94 0 111.28 61.9 111.28 142.3V448z"></path>
  </symbol>
  <symbol id="twitter" viewBox="0 0 512 512">
    <path fill="currentColor" d="M459.37 151.716c.325 4.548.325 9.097.325 13.645 0 138.72-105.583 298.558-298.558 298.558-59.452 0-114.68-17.219-161.137-47.106 8.447.974 16.568 1.299 25.34 1.299 49.055 0 94.213-16.568 130.274-44.832-46.132-.975-84.792-31.188-98.112-72.772 6.498.974 12.995 1.624 19.818 1.624 9.421 0 18.843-1.3 27.614-3.573-48.081-9.747-84.143-51.98-84.143-102.985v-1.299c13.969 7.797 30.214 12.67 47.431 13.319-28.264-18.843-46.781-51.005-46.781-87.391 0-19.492 5.197-37.36 14.294-52.954 51.655 63.675 129.3 105.258 216.365 109.807-1.624-7.797-2.599-15.918-2.599-24.04 0-57.828 46.782-104.934 104.934-104.934 30.213 0 57.502 12.67 76.67 33.137 23.715-4.548 46.456-13.32 66.599-25.34-7.798 24.366-24.366 44.833-46.132 57.827 21.117-2.273 41.584-8.122 60.426-16.243-14.292 20.791-32.161 39.308-52.628 54.253z"></path>
  </symbol>
  <symbol id="instagram" viewBox="0 0 448 512">
    <path fill="currentColor" d="M224.1 141c-63.6 0-114.9 51.3-114.9 114.9s51.3 114.9 114.9 114.9S339 319.5 339 255.9 287.7 141 224.1 141zm0 189.6c-41.1 0-74.7-33.5-74.7-74.7s33.5-74.7 74.7-74.7 74.7 33.5 74.7 74.7-33.6 74.7-74.7 74.7zm146.4-194.3c0 14.9-12 26.8-26.8 26.8-14.9 0-26.8-12-26.8-26.8s12-26.8 26.8-26.8 26.8 12 26.8 26.8zm76.1 27.2c-1.7-35.9-9.9-67.7-36.2-93.9-26.2-26.2-58-34.4-93.9-36.2-37-2.1-147.9-2.1-184.9 0-35.8 1.7-67.6 9.9-93.9 36.1s-34.4 58-36.2 93.9c-2.1 37-2.1 147.9 0 184.9 1.7 35.9 9.9 67.7 36.2 93.9s58 34.4 93.9 36.2c37 2.1 147.9 2.1 184.9 0 35.9-1.7 67.7-9.9 93.9-36.2 26.2-26.2 34.4-58 36.2-93.9 2.1-37 2.1-147.8 0-184.8zM398.8 388c-7.8 19.6-22.9 34.7-42.6 42.6-29.5 11.7-99.5 9-132.1 9s-102.7 2.6-132.1-9c-19.6-7.8-34.7-22.9-42.6-42.6-11.7-29.5-9-99.5-9-132.1s-2.6-102.7 9-132.1c7.8-19.6 22.9-34.7 42.6-42.6 29.5-11.7 99.5-9 132.1-9s102.7-2.6 132.1 9c19.6 7.8 34.7 22.9 42.6 42.6 11.7 29.5 9 99.5 9 132.1s2.7 102.7-9 132.1z"></path>
  </symbol>
  <symbol id="file-pdf-regular" viewBox="0 0 100 100">
    <path fill="currentColor" d="M68.865,66.229c0,0-1.057,1.318-7.119-1.322C68.604,64.383,69.66,65.963,68.865,66.229 M43.275,67.285
  c1.846-3.17,3.432-7.129,4.744-10.557c1.59,2.904,3.697,5.279,5.807,6.863C49.871,64.383,46.439,66.229,43.275,67.285z
   M48.02,40.635c1.324,0,1.324,6.328,0.268,7.918C47.496,45.912,47.496,40.635,48.02,40.635z M31.93,77.836
  c1.051-2.637,5.012-5.801,6.066-6.857C34.305,77.047,31.93,78.098,31.93,77.836z M70.713,62.535
  c-2.371-2.113-9.234-1.584-12.66-1.057c-3.17-2.113-5.545-5.016-7.129-9.232c0.793-3.17,2.113-7.92,1.057-10.822
  c-0.791-5.012-7.387-4.75-8.178-1.057c-1.057,2.904-0.266,7.391,1.318,12.932c-2.107,4.748-5.012,11.084-6.857,14.51
  c-3.959,2.113-9.238,5.277-10.031,8.977c-0.791,3.16,5.016,10.813,14.781-6.072c4.482-1.318,9.232-3.166,13.453-3.693
  c3.693,1.846,7.916,3.168,10.818,3.168C72.297,70.188,72.824,64.645,70.713,62.535z M21.902,90.768V9.5h31.135v20.316
  c0,2.641,2.111,4.75,4.748,4.75h20.318v56.201H21.902z M77.309,25.066H62.535V10.289L77.309,25.066z M84.699,19.266L68.342,2.902
  C66.494,1.057,64.115,0,61.746,0H21.902c-5.273,0-9.5,4.227-9.5,9.5v81.268c0,5.012,4.227,9.232,9.5,9.232h56.201
  c5.277,0,9.494-4.221,9.494-9.232V25.861C87.598,23.482,86.545,21.111,84.699,19.266z"/>
  </symbol>
  <symbol id="email" viewBox="0 0 512 512">
    <path fill="currentColor" d="M502.3 190.8c3.9-3.1 9.7-.2 9.7 4.7V400c0 26.5-21.5 48-48 48H48c-26.5 0-48-21.5-48-48V195.6c0-5 5.7-7.8 9.7-4.7 22.4 17.4 52.1 39.5 154.1 113.6 21.1 15.4 56.7 47.8 92.2 47.6 35.7.3 72-32.8 92.3-47.6 102-74.1 131.6-96.3 154-113.7zM256 320c23.2.4 56.6-29.2 73.4-41.4 132.7-96.3 142.8-104.7 173.4-128.7 5.8-4.5 9.2-11.5 9.2-18.9v-19c0-26.5-21.5-48-48-48H48C21.5 64 0 85.5 0 112v19c0 7.4 3.4 14.3 9.2 18.9 30.6 23.9 40.7 32.4 173.4 128.7 16.8 12.2 50.2 41.8 73.4 41.4z"></path>
  </symbol>
  <symbol id="phone" viewBox="0 0 512 512">
    <path fill="currentColor" d="M493.4 24.6l-104-24c-11.3-2.6-22.9 3.3-27.5 13.9l-48 112c-4.2 9.8-1.4 21.3 6.9 28l60.6 49.6c-36 76.7-98.9 140.5-177.2 177.2l-49.6-60.6c-6.8-8.3-18.2-11.1-28-6.9l-112 48C3.9 366.5-2 378.1.6 389.4l24 104C27.1 504.2 36.7 512 48 512c256.1 0 464-207.5 464-464 0-11.2-7.7-20.9-18.6-23.4z"></path>
  </symbol>
<symbol id="stackoverflow" viewBox="0 0 384 512">
    <path fill="currentColor" d="M290.7 311L95 269.7 86.8 309l195.7 41zm51-87L188.2 95.7l-25.5 30.8 153.5 128.3zm-31.2 39.7L129.2 179l-16.7 36.5L293.7 300zM262 32l-32 24 119.3 160.3 32-24zm20.5 328h-200v39.7h200zm39.7 80H42.7V320h-40v160h359.5V320h-40z"></path>
  </symbol>
<symbol id="bootstrap" viewBox="0 0 448 512">
  <path fill="#8C8C8C" d="M292.3 311.93c0 42.41-39.72 41.43-43.92 41.43h-80.89v-81.69h80.89c42.56 0 43.92 31.9 43.92 40.26zm-50.15-73.13c.67 0 38.44 1 38.44-36.31 0-15.52-3.51-35.87-38.44-35.87h-74.66v72.18h74.66zM448 106.67v298.66A74.89 74.89 0 0 1 373.33 480H74.67A74.89 74.89 0 0 1 0 405.33V106.67A74.89 74.89 0 0 1 74.67 32h298.66A74.89 74.89 0 0 1 448 106.67zM338.05 317.86c0-21.57-6.65-58.29-49.05-67.35v-.73c22.91-9.78 37.34-28.25 37.34-55.64 0-7 2-64.78-77.6-64.78h-127v261.33c128.23 0 139.87 1.68 163.6-5.71 14.21-4.42 52.71-17.98 52.71-67.12z"></path>
  </symbol>
  <symbol id="css" viewBox="0 0 384 512">
  <path fill="#8C8C8C" d="M0 32l34.9 395.8L192 480l157.1-52.2L384 32H0zm313.1 80l-4.8 47.3L193 208.6l-.3.1h111.5l-12.8 146.6-98.2 28.7-98.8-29.2-6.4-73.9h48.9l3.2 38.3 52.6 13.3 54.7-15.4 3.7-61.6-166.3-.5v-.1l-.2.1-3.6-46.3L193.1 162l6.5-2.7H76.7L70.9 112h242.2z"></path>
  </symbol>
  <symbol id="git" viewBox="0 0 512 512">
  <path fill="#8C8C8C" d="M216.29 158.39H137C97 147.9 6.51 150.63 6.51 233.18c0 30.09 15 51.23 35 61-25.1 23-37 33.85-37 49.21 0 11 4.47 21.14 17.89 26.81C8.13 383.61 0 393.35 0 411.65c0 32.11 28.05 50.82 101.63 50.82 70.75 0 111.79-26.42 111.79-73.18 0-58.66-45.16-56.5-151.63-63l13.43-21.55c27.27 7.58 118.7 10 118.7-67.89 0-18.7-7.73-31.71-15-41.07l37.41-2.84zm-63.42 241.9c0 32.06-104.89 32.1-104.89 2.43 0-8.14 5.27-15 10.57-21.54 77.71 5.3 94.32 3.37 94.32 19.11zm-50.81-134.58c-52.8 0-50.46-71.16 1.2-71.16 49.54 0 50.82 71.16-1.2 71.16zm133.3 100.51v-32.1c26.75-3.66 27.24-2 27.24-11V203.61c0-8.5-2.05-7.38-27.24-16.26l4.47-32.92H324v168.71c0 6.51.4 7.32 6.51 8.14l20.73 2.84v32.1zm52.45-244.31c-23.17 0-36.59-13.43-36.59-36.61s13.42-35.77 36.59-35.77c23.58 0 37 12.62 37 35.77s-13.42 36.61-37 36.61zM512 350.46c-17.49 8.53-43.1 16.26-66.28 16.26-48.38 0-66.67-19.5-66.67-65.46V194.75c0-5.42 1.05-4.06-31.71-4.06V154.5c35.78-4.07 50-22 54.47-66.27h38.63c0 65.83-1.34 61.81 3.26 61.81H501v40.65h-60.56v97.15c0 6.92-4.92 51.41 60.57 26.84z"></path>
  </symbol>
  <symbol id="html" viewBox="0 0 384 512">
  <path fill="#8C8C8C" d="M0 32l34.9 395.8L191.5 480l157.6-52.2L384 32H0zm308.2 127.9H124.4l4.1 49.4h175.6l-13.6 148.4-97.9 27v.3h-1.1l-98.7-27.3-6-75.8h47.7L138 320l53.5 14.5 53.7-14.5 6-62.2H84.3L71.5 112.2h241.1l-4.4 47.7z"></path>
  </symbol>
  <symbol id="js" viewBox="0 0 448 512">
  <path fill="#8C8C8C" d="M0 32v448h448V32H0zm243.8 349.4c0 43.6-25.6 63.5-62.9 63.5-33.7 0-53.2-17.4-63.2-38.5l34.3-20.7c6.6 11.7 12.6 21.6 27.1 21.6 13.8 0 22.6-5.4 22.6-26.5V237.7h42.1v143.7zm99.6 63.5c-39.1 0-64.4-18.6-76.7-43l34.3-19.8c9 14.7 20.8 25.6 41.5 25.6 17.4 0 28.6-8.7 28.6-20.8 0-14.4-11.4-19.5-30.7-28l-10.5-4.5c-30.4-12.9-50.5-29.2-50.5-63.5 0-31.6 24.1-55.6 61.6-55.6 26.8 0 46 9.3 59.8 33.7L368 290c-7.2-12.9-15-18-27.1-18-12.3 0-20.1 7.8-20.1 18 0 12.6 7.8 17.7 25.9 25.6l10.5 4.5c35.8 15.3 55.9 31 55.9 66.2 0 37.8-29.8 58.6-69.7 58.6z"></path>
  </symbol>

  <symbol id="arduino" viewBox="0 0 512 512">
    <g>
      <path fill="#999999" d="M512,255.99c0,141.381-114.6,256-255.97,256C114.62,511.99,0,397.371,0,255.99
        C0,114.631,114.61,0.01,256.03,0.01C397.4,0.01,512,114.631,512,255.99z"/>
      <path fill="#FFFFFF" d="M353.779,347.53c-4.819,0-9.76-0.34-14.619-1.08c-40.68-5.799-67.881-35.02-83.14-57.479
        c-15.28,22.461-42.49,51.719-83.16,57.52c-4.84,0.682-9.73,1.039-14.62,1.039c-25.3,0-49.05-9.42-66.91-26.52
        c-18.03-17.24-27.99-40.359-27.99-65.03c0-24.7,9.96-47.8,28.02-65.069c17.84-17.091,41.61-26.48,66.92-26.48
        c4.82,0,9.73,0.34,14.57,1.04c40.68,5.8,67.88,35.03,83.17,57.49c15.259-22.459,42.46-51.681,83.14-57.49
        c4.859-0.7,9.76-1.04,14.6-1.04c25.28,0,49.04,9.41,66.9,26.48c18.061,17.27,27.98,40.369,27.98,65.069
        c0,24.67-9.9,47.79-27.961,65.03C402.8,338.11,379.08,347.53,353.779,347.53z M274.04,255.99
        c7.96,15.141,31.399,52.899,69.72,58.381c3.36,0.479,6.721,0.721,10,0.721c34.44,0,62.44-26.521,62.44-59.111
        c0-32.6-28-59.12-62.44-59.12c-3.3,0-6.68,0.24-10,0.721C305.439,203.06,282,240.82,274.04,255.99z M158.28,196.871
        c-34.47,0-62.49,26.51-62.49,59.119c0,32.581,28.01,59.102,62.45,59.102c3.3,0,6.68-0.24,10.03-0.701
        c38.32-5.5,61.76-43.219,69.71-58.389c-7.93-15.141-31.39-52.94-69.71-58.391C164.96,197.11,161.57,196.871,158.28,196.871z"/>
      <path fill="#FFFFFF" d="M132.13,247.041h56.99v18.36h-56.99V247.041z M379.359,247.041H360.08v-19.32h-18.439v19.32h-19.281v18.36
        h19.281v19.33h18.438v-19.33h19.278v-18.36H379.359z"/>
    </g>
  </symbol>

  <symbol id="jquery" viewBox="0 0 512 512">
    <g>
      <path fill="#A6A7A8" d="M112.232,83.129c-29.28,42.85-25.63,98.6-3.32,144.08l1.64,3.239l1.11,2.061c0.2,0.4,0.44,0.79,0.65,1.18
        c0.39,0.722,0.77,1.41,1.11,2.12l2.13,3.73l1.22,2.05l2.48,3.95l1.11,1.659c1.1,1.771,2.36,3.529,3.59,5.271
        c0.02,0.05,0.06,0.1,0.09,0.14c0.2,0.28,0.42,0.562,0.56,0.83c1.06,1.5,2.22,2.972,3.32,4.44l1.24,1.591l3.02,3.779l1.15,1.41
        c1.37,1.658,2.78,3.3,4.21,4.898l0.09,0.08c0.05,0.079,0.11,0.119,0.17,0.199c1.38,1.561,2.81,3.08,4.271,4.6l1.38,1.4l3.42,3.398
        l1.39,1.359c1.54,1.479,3.1,2.92,4.69,4.34l0.88,0.78l4.26,3.66l1.76,1.42l3.54,2.779l1.9,1.461l5.42,3.959
        c0.14,0.12,0.26,0.198,0.4,0.301c1.27,0.897,2.56,1.739,3.86,2.601l1.67,1.141l6.06,3.761l1.67,0.96l4.54,2.6
        c0.83,0.44,1.69,0.881,2.51,1.32l3.25,1.66l0.75,0.38l1.33,0.64l5.15,2.44l1.1,0.54c1.98,0.898,3.99,1.739,6,2.54l1.47,0.601
        l5.67,2.119l0.7,0.28c2.1,0.72,4.2,1.438,6.32,2.101l1.53,0.459c2.21,0.681,4.29,1.461,6.52,1.881
        c141.59,26.36,182.729-86.59,182.729-86.59c-34.539,45.831-95.858,57.911-153.948,44.469c-2.2-0.559-4.33-1.197-6.49-1.879
        l-1.61-0.52c-2.1-0.68-4.18-1.36-6.24-2.08l-0.86-0.32c-1.85-0.681-3.68-1.358-5.51-2.08l-1.55-0.62
        c-1.99-0.8-3.97-1.64-5.93-2.521l-1.19-0.539l-5.01-2.361l-1.44-0.719c-1.3-0.641-2.6-1.319-3.88-2l-2.59-1.398
        c-1.57-0.86-3.11-1.74-4.64-2.65l-1.57-0.89c-2.04-1.222-4.06-2.49-6.06-3.771c-0.55-0.358-1.08-0.74-1.63-1.1l-4.31-2.92l-1.38-1
        l-4.07-2.99l-1.81-1.391l-3.68-2.921l-1.63-1.329l-4.58-3.881c-0.15-0.14-0.33-0.278-0.55-0.43c-1.63-1.46-3.23-2.95-4.81-4.45
        l-1.35-1.33l-3.46-3.448l-1.35-1.382c-1.44-1.5-2.86-3.02-4.24-4.568c-0.07-0.08-0.15-0.15-0.21-0.222
        c-1.47-1.64-2.9-3.3-4.3-4.988l-1.13-1.36l-3.1-3.899l-1.14-1.439l-3.57-4.851c-32.26-44.811-43.78-106.601-18.07-157.351
        L112.232,83.129z M203.122,47.01c-21.17,31.04-20.02,72.57-3.51,105.39c2.77,5.512,5.89,10.83,9.37,15.92
        c3.17,4.632,6.69,10.142,10.9,13.852c1.52,1.66,3.12,3.33,4.75,5.02c0.41,0.432,0.83,0.84,1.25,1.262c1.58,1.568,3.2,3.1,4.86,4.6
        c0.06,0.06,0.12,0.12,0.2,0.18c1.86,1.65,3.76,3.261,5.71,4.82l1.28,1.02c1.94,1.521,3.92,2.99,5.93,4.41
        c0.06,0.04,0.11,0.08,0.17,0.12c0.89,0.63,1.8,1.22,2.71,1.82c0.43,0.29,0.84,0.59,1.27,0.87c1.45,0.938,2.91,1.858,4.39,2.738
        l0.63,0.37l3.87,2.21c0.459,0.262,0.921,0.49,1.391,0.74l2.771,1.42c0.141,0.08,0.278,0.13,0.41,0.2
        c1.868,0.94,3.75,1.83,5.67,2.69c0.42,0.18,0.818,0.35,1.26,0.52c1.521,0.67,3.08,1.311,4.641,1.93l2,0.74
        c1.42,0.521,2.84,1.03,4.28,1.51l1.92,0.631c2.039,0.649,4.039,1.461,6.159,1.819c109.318,18.439,134.558-67.281,134.558-67.281
        c-22.739,33.36-66.799,49.29-113.799,36.86c-2.101-0.55-4.16-1.16-6.2-1.83c-0.64-0.188-1.24-0.398-1.859-0.55
        c-1.459-0.48-2.899-0.99-4.34-1.521l-1.961-0.738c-1.56-0.562-3.119-1.25-4.64-1.91c-0.44-0.19-0.84-0.352-1.261-0.55
        c-1.939-0.84-3.84-1.74-5.7-2.7c-0.979-0.48-1.92-0.98-2.879-1.48l-1.642-0.869c-1.221-0.671-2.438-1.359-3.619-2.069l-0.859-0.562
        c-1.48-0.88-2.939-1.79-4.38-2.729c-0.462-0.29-0.882-0.55-1.341-0.892l-2.819-1.92c-2-1.42-3.979-2.88-5.91-4.398l-1.33-1.062
        c-20.58-16.55-36.89-39.158-44.64-64.8c-8.14-26.6-6.38-56.45,7.75-80.67L203.122,47.01z M279.542,20.03
        c-12.479,18.722-13.7,41.95-4.979,62.602c9.119,21.93,27.84,39.14,49.682,47.29c0.898,0.35,1.8,0.648,2.777,0.96l1.182,0.39
        c1.301,0.41,2.58,0.892,3.92,1.142c60.34,11.88,76.721-31.54,81.08-37.932c-14.359,21.03-38.459,26.08-68.039,18.771
        c-2.32-0.58-4.881-1.44-7.2-2.25c-2.88-1.05-5.72-2.25-8.479-3.602c-5.26-2.58-10.26-5.68-14.898-9.26
        c-26.521-20.45-42.96-59.45-25.7-91.22"/>
      <path fill="#131B28" d="M146.242,417.198l-4.09,14.48L146.242,417.198L146.242,417.198z M167.282,448.658l-4.51-0.021
        L167.282,448.658z M166.172,470.298l-27,0.101L166.172,470.298z M171.822,448.679l-4.51-0.021L171.822,448.679z M168.592,468.457
        l4.71-17.938L168.592,468.457z M267.962,385.839l-8.75,41.198L267.962,385.839z M245.432,385.839l-6.65,30.778L245.432,385.839z"/>
      <path fill="#A6A7A8" d="M266.4,383.998h-18.718c-1.04,0-2.08,0.819-2.3,1.841l-13.3,61.56c-0.22,1.021-1.25,1.841-2.29,1.841
        h-13.26c-13.12,0-11.6-9.079-8.87-21.5l0.09-0.381l1.59-8.479l0.69-3.479l6.05-29.56c0.21-1.021-0.47-1.841-1.52-1.841h-19.22
        c-1.1,0.039-2.03,0.801-2.29,1.841l-8.66,41.08c-4.77,21.76-3.5,42.479,22.39,43.14l0.75,0.021h40.63c1.04,0,2.06-0.842,2.29-1.86
        l17.51-82.379c0.24-1.021-0.44-1.84-1.479-1.84h-0.08v-0.004H266.4z M341.162,449.457c1.039,0,1.66,0.819,1.5,1.859l-1.82,8.88
        L341.162,449.457z M339.042,469.117l1.8-8.921L339.042,469.117z M336.742,470.978l-34.521,0.182L336.742,470.978z"/>
      <path fill="#131B28" d="M291.042,437.998c-0.021-0.961,1.08-2.642,2.12-2.642l-2.32-0.04
        C289.723,445.919,291.042,437.998,291.042,437.998z M303.922,471.139h-0.359H303.922z M341.162,449.457
        c1.039,0,1.66,0.819,1.5,1.859l-2.102,10.32L341.162,449.457z M312.802,471.158h-0.079H312.802z M308.201,471.117h-0.279H308.201z
        M306.802,471.139h-0.44H306.802z M305.422,471.139h-0.38H305.422z M308.002,471.117h-1.16H308.002z"/>
      <path fill="#A6A7A8" d="M312.723,471.158l-4.521,0.021L312.723,471.158z M336.762,471.019l-23.96,0.142L336.762,471.019z
        M338.98,469.099l1.521-7.46l-1.521,7.479V469.099z M306.302,471.139h-0.88h0.979H306.302z M303.563,471.139h-1.34H303.563z
        M304.98,471.139h-1.101H304.98z M30.882,438.239l2.91-12.92l-3.33,14.739l-0.39,1.86l0.81-3.7V438.239z M65.712,383.778h-20.57
        c-1.1,0.041-2.03,0.78-2.32,1.86l-3.9,17.16c-0.22,0.76,0.21,1.56,0.98,1.8c0.16,0.04,0.33,0.062,0.5,0.04h20.73
        c1.05,0,2.08-0.819,2.3-1.84l3.77-17.221c0.22-1.021-0.45-1.841-1.5-1.841L65.712,383.778z M61.242,412.419l-6.1,27.92
        L61.242,412.419z M1.462,504.957l16.97,0.121c-5.01,0-13.29-0.102-16.98-0.159L1.462,504.957z"/>
      <path fill="#A6A7A8" d="M36.643,412.419l-2.91,12.898L36.643,412.419z M59.752,410.578h-20.74c-1.09,0.061-2.03,0.778-2.31,1.841
        l-5.82,25.818l-0.81,3.682l-5.54,26.357c-0.28,1.24-0.61,2.439-1,3.643c0,0-3.88,11.52-10.39,11.397l-6.46-0.12
        c-1.08,0.04-2.02,0.761-2.32,1.802l-4.3,18.08c-0.23,0.761,0.2,1.56,0.96,1.8c0.16,0.041,0.33,0.079,0.49,0.061l16.97,0.142
        c16.28,0,24.85-9,30.35-34.961l12.47-57.641c0.22-1-0.45-1.84-1.49-1.84L59.752,410.578z M354.359,470.078
        c-1.037,0-1.64-0.819-1.479-1.842l15.6-73.078L354.359,470.078z M376.041,468.238l6.318-31.199L376.041,468.238z"/>
      <path fill="#131B28" d="M353.102,469.158c-0.14-0.521-0.061-1.762,0.182-2.762l7.398-34.7l-7.8,36.54
        c-0.239,1,0.44,1.842,1.479,1.842h1.899C355.223,470.078,353.223,469.679,353.102,469.158z M374.822,469.679
        c-0.563,0.199-1.883,0.399-2.922,0.399h1.899c1.08-0.041,2-0.802,2.28-1.842l0.357-1.858c-0.197,1.021-1.1,3.061-1.658,3.301
        H374.822L374.822,469.679z M379.201,452.639l2.801-13.78L379.201,452.639z M440.762,400.037l0.859,3.562
        c0.239,1-0.42,1.84-1.459,1.84"/>
      <path fill="#131B28" d="M376.439,466.378l2.762-13.739L376.439,466.378z M439.922,396.358l0.84,3.643L439.922,396.358z
        M382.002,438.878l0.76-3.682l2.961-13.959l-3.36,15.8L382.002,438.878z M368.723,393.957l-0.641,3.041l-7.4,34.698l7.801-36.538
        L368.723,393.957L368.723,393.957L368.723,393.957z"/>
      <path fill="#A6A7A8" d="M441.642,403.599l-0.88-3.562l-1.279-5.521c-1.682-6.562-6.602-10.32-17.359-10.32l-49.42-0.038
        c-1.102,0.038-2.021,0.799-2.301,1.84l-0.76,3.619l-1.102,5.461l-15.219,71.238c-0.201,1.021-0.281,2.221-0.16,2.762
        c0.119,0.561,2.119,0.938,3.16,0.938h15.639c1.041,0,2.341-0.18,2.921-0.42c0.56-0.24,1.399-2.2,1.659-3.28l5.92-29.359
        l6.361-29.72c0.219-1,1.238-1.841,2.277-1.841l49.182-0.04c1.039,0,1.68-0.8,1.438-1.84L441.642,403.599z M504.922,371.498
        l-3.761,0.021H485.4c-1.159,0.062-2.238,0.642-2.96,1.562L447.64,424.06c-0.579,0.86-1.239,0.74-1.479-0.28l-2.563-11.22
        c-0.279-1.08-1.239-1.8-2.318-1.859h-22.359c-1.062,0-1.68,0.819-1.399,1.819l10,35.12c0.279,1,0.279,2.64,0.039,3.659l-4.438,17
        c-0.24,0.739,0.141,1.5,0.859,1.761c0.182,0.061,0.38,0.102,0.579,0.08h22.16c1.04,0,2.12-0.82,2.36-1.82l4.438-17
        c0.341-1.199,0.881-2.317,1.602-3.358l56.561-75c0.642-0.841,0.279-1.521-0.76-1.499l-5.92,0.06L504.922,371.498z M327.162,415.478
        c-0.12,1.12-1.16,1.96-2.2,1.96h-28.38c-0.98,0-1.48-0.68-1.34-1.52l0.039-0.143l0.119-0.5c2.762-7.198,8.24-11.92,18.602-11.92
        C325.682,403.358,327.962,409.078,327.162,415.478L327.162,415.478L327.162,415.478z M318.842,382.739
        c-36.4,0-45.04,22.102-49.88,44.421c-4.83,22.72-4.42,44,33.261,44h5.979l4.601-0.041l23.96-0.118c1.08-0.063,2-0.803,2.26-1.882
        l3.643-17.778c0.22-1.021-0.461-1.86-1.5-1.86h-33.882c-13.479,0-17.479-3.58-16-14.101h54.159c0.882-0.021,1.681-0.562,2-1.399
        c0.041-0.14,0.101-0.3,0.119-0.46c8.041-30.32,5.722-50.76-28.699-50.76L318.842,382.739z M146.752,415.358l-0.51,1.802
        c0,0.021-4.09,14.521-4.09,14.521l-4.09,14.479c-0.35,1.038-1.31,1.761-2.41,1.818h-21.65c-16.41,0-20.4-12.859-16.41-31.78
        c3.99-19.357,11.83-31.397,27.99-32.64C147.662,381.919,152.072,397.438,146.752,415.358L146.752,415.358L146.752,415.358z
        M161.592,446.878c0,0,10.19-24.779,12.52-39.102c3.16-19.159-6.43-46.938-43.47-46.938c-36.84,0-52.84,26.52-58.939,55.42
        c-6.09,29.039,1.9,54.5,38.52,54.3l55.9-0.2c1.1-0.04,2.04-0.778,2.36-1.84l4.71-17.938c0.26-0.722-0.12-1.5-0.85-1.762
        c-0.18-0.06-0.37-0.1-0.56-0.078l-9.02-0.062c-0.88,0-1.38-0.562-1.28-1.32c0.02-0.159,0.06-0.278,0.11-0.438L161.592,446.878
        L161.592,446.878z"/>
      <path fill="#131B28" d="M343.939,430.278c0,0.682-0.539,1.261-1.238,1.261s-1.239-0.579-1.239-1.261c0-0.68,0.54-1.239,1.239-1.239
        C343.4,429.037,343.939,429.599,343.939,430.278z"/>
    </g>
  </symbol> 
  <symbol id="vuejs" viewBox="0 0 512 512">
		<g>
	<path fill="#606060" d="M101.12,35.2L256,301.44L409.6,35.2h-94.721L256,137.6L195.84,35.2H101.12z"/>
	<path fill="#B7B7B7" d="M0,35.2l256,441.601L512,35.2H409.6L256,300.16L101.12,35.2H0z"/>
</g>
  </symbol>

<symbol id="bootstrap" viewBox="0 0 448 512">
  <path fill="#8C8C8C" d="M292.3 311.93c0 42.41-39.72 41.43-43.92 41.43h-80.89v-81.69h80.89c42.56 0 43.92 31.9 43.92 40.26zm-50.15-73.13c.67 0 38.44 1 38.44-36.31 0-15.52-3.51-35.87-38.44-35.87h-74.66v72.18h74.66zM448 106.67v298.66A74.89 74.89 0 0 1 373.33 480H74.67A74.89 74.89 0 0 1 0 405.33V106.67A74.89 74.89 0 0 1 74.67 32h298.66A74.89 74.89 0 0 1 448 106.67zM338.05 317.86c0-21.57-6.65-58.29-49.05-67.35v-.73c22.91-9.78 37.34-28.25 37.34-55.64 0-7 2-64.78-77.6-64.78h-127v261.33c128.23 0 139.87 1.68 163.6-5.71 14.21-4.42 52.71-17.98 52.71-67.12z"></path>
</symbol>

<symbol id="html" viewBox="0 0 384 512">
 <path fill="#8C8C8C" d="M0 32l34.9 395.8L191.5 480l157.6-52.2L384 32H0zm308.2 127.9H124.4l4.1 49.4h175.6l-13.6 148.4-97.9 27v.3h-1.1l-98.7-27.3-6-75.8h47.7L138 320l53.5 14.5 53.7-14.5 6-62.2H84.3L71.5 112.2h241.1l-4.4 47.7z"></path>
</symbol>
<symbol id="css" viewBox="0 0 384 512">
 <path fill="#8C8C8C" d="M0 32l34.9 395.8L192 480l157.1-52.2L384 32H0zm313.1 80l-4.8 47.3L193 208.6l-.3.1h111.5l-12.8 146.6-98.2 28.7-98.8-29.2-6.4-73.9h48.9l3.2 38.3 52.6 13.3 54.7-15.4 3.7-61.6-166.3-.5v-.1l-.2.1-3.6-46.3L193.1 162l6.5-2.7H76.7L70.9 112h242.2z"></path>
</symbol>
<symbol id="js" viewBox="0 0 448 512">
<path fill="#8C8C8C" d="M0 32v448h448V32H0zm243.8 349.4c0 43.6-25.6 63.5-62.9 63.5-33.7 0-53.2-17.4-63.2-38.5l34.3-20.7c6.6 11.7 12.6 21.6 27.1 21.6 13.8 0 22.6-5.4 22.6-26.5V237.7h42.1v143.7zm99.6 63.5c-39.1 0-64.4-18.6-76.7-43l34.3-19.8c9 14.7 20.8 25.6 41.5 25.6 17.4 0 28.6-8.7 28.6-20.8 0-14.4-11.4-19.5-30.7-28l-10.5-4.5c-30.4-12.9-50.5-29.2-50.5-63.5 0-31.6 24.1-55.6 61.6-55.6 26.8 0 46 9.3 59.8 33.7L368 290c-7.2-12.9-15-18-27.1-18-12.3 0-20.1 7.8-20.1 18 0 12.6 7.8 17.7 25.9 25.6l10.5 4.5c35.8 15.3 55.9 31 55.9 66.2 0 37.8-29.8 58.6-69.7 58.6z"></path>
</symbol>
<symbol id="php" viewBox="0 0 640 512">
<path fill="#8C8C8C" d="M320 104.5c171.4 0 303.2 72.2 303.2 151.5S491.3 407.5 320 407.5c-171.4 0-303.2-72.2-303.2-151.5S148.7 104.5 320 104.5m0-16.8C143.3 87.7 0 163 0 256s143.3 168.3 320 168.3S640 349 640 256 496.7 87.7 320 87.7zM218.2 242.5c-7.9 40.5-35.8 36.3-70.1 36.3l13.7-70.6c38 0 63.8-4.1 56.4 34.3zM97.4 350.3h36.7l8.7-44.8c41.1 0 66.6 3 90.2-19.1 26.1-24 32.9-66.7 14.3-88.1-9.7-11.2-25.3-16.7-46.5-16.7h-70.7L97.4 350.3zm185.7-213.6h36.5l-8.7 44.8c31.5 0 60.7-2.3 74.8 10.7 14.8 13.6 7.7 31-8.3 113.1h-37c15.4-79.4 18.3-86 12.7-92-5.4-5.8-17.7-4.6-47.4-4.6l-18.8 96.6h-36.5l32.7-168.6zM505 242.5c-8 41.1-36.7 36.3-70.1 36.3l13.7-70.6c38.2 0 63.8-4.1 56.4 34.3zM384.2 350.3H421l8.7-44.8c43.2 0 67.1 2.5 90.2-19.1 26.1-24 32.9-66.7 14.3-88.1-9.7-11.2-25.3-16.7-46.5-16.7H417l-32.8 168.7z"></path>
</symbol>
<symbol id="git" viewBox="0 0 512 512">
<path fill="#8C8C8C" d="M216.29 158.39H137C97 147.9 6.51 150.63 6.51 233.18c0 30.09 15 51.23 35 61-25.1 23-37 33.85-37 49.21 0 11 4.47 21.14 17.89 26.81C8.13 383.61 0 393.35 0 411.65c0 32.11 28.05 50.82 101.63 50.82 70.75 0 111.79-26.42 111.79-73.18 0-58.66-45.16-56.5-151.63-63l13.43-21.55c27.27 7.58 118.7 10 118.7-67.89 0-18.7-7.73-31.71-15-41.07l37.41-2.84zm-63.42 241.9c0 32.06-104.89 32.1-104.89 2.43 0-8.14 5.27-15 10.57-21.54 77.71 5.3 94.32 3.37 94.32 19.11zm-50.81-134.58c-52.8 0-50.46-71.16 1.2-71.16 49.54 0 50.82 71.16-1.2 71.16zm133.3 100.51v-32.1c26.75-3.66 27.24-2 27.24-11V203.61c0-8.5-2.05-7.38-27.24-16.26l4.47-32.92H324v168.71c0 6.51.4 7.32 6.51 8.14l20.73 2.84v32.1zm52.45-244.31c-23.17 0-36.59-13.43-36.59-36.61s13.42-35.77 36.59-35.77c23.58 0 37 12.62 37 35.77s-13.42 36.61-37 36.61zM512 350.46c-17.49 8.53-43.1 16.26-66.28 16.26-48.38 0-66.67-19.5-66.67-65.46V194.75c0-5.42 1.05-4.06-31.71-4.06V154.5c35.78-4.07 50-22 54.47-66.27h38.63c0 65.83-1.34 61.81 3.26 61.81H501v40.65h-60.56v97.15c0 6.92-4.92 51.41 60.57 26.84z"></path>
</symbol>
<symbol id="windows" viewBox="0 0 448 512">
<path fill="#8C8C8C" d="M0 93.7l183.6-25.3v177.4H0V93.7zm0 324.6l183.6 25.3V268.4H0v149.9zm203.8 28L448 480V268.4H203.8v177.9zm0-380.6v180.1H448V32L203.8 65.7z"></path>
</symbol>
<symbol id="apple" viewBox="0 0 512 512">
<path fill="#8C8C8C" d="M400.598,270.565c-0.229-41.951,18.746-73.613,57.153-96.932c-21.489-30.749-53.953-47.666-96.817-50.981
	c-40.578-3.2-84.93,23.662-101.16,23.662c-17.146,0-56.469-22.519-87.332-22.519C108.66,124.823,40.876,174.66,40.876,276.051
	c0,29.946,5.487,60.887,16.46,92.815c14.631,41.949,67.44,144.826,122.537,143.111c28.805-0.687,49.151-20.461,86.645-20.461
	c36.351,0,55.211,20.461,87.33,20.461c55.555-0.801,103.333-94.303,117.278-136.367C396.598,340.52,400.598,272.737,400.598,270.565
	L400.598,270.565z"/>
<path fill="#8C8C8C" d="M335.9,82.872c31.205-37.034,28.348-70.754,27.434-82.871c-27.548,1.6-59.439,18.745-77.614,39.893
	c-20.004,22.633-31.776,50.638-29.263,82.188C286.291,124.365,313.496,109.05,335.9,82.872z"/>
</symbol>
<symbol id="adobe" viewBox="0 0 512 512">
<path fill="#8C8C8C" d="M315.5 64h170.9v384L315.5 64zm-119 0H25.6v384L196.5 64zM256 206.1L363.5 448h-73l-30.7-76.8h-78.7L256 206.1z"></path>
</symbol>
<symbol id="linux" viewBox="0 0 448 512">
<path fill="#8C8C8C" d="M220.8 123.3c1 .5 1.8 1.7 3 1.7 1.1 0 2.8-.4 2.9-1.5.2-1.4-1.9-2.3-3.2-2.9-1.7-.7-3.9-1-5.5-.1-.4.2-.8.7-.6 1.1.3 1.3 2.3 1.1 3.4 1.7zm-21.9 1.7c1.2 0 2-1.2 3-1.7 1.1-.6 3.1-.4 3.5-1.6.2-.4-.2-.9-.6-1.1-1.6-.9-3.8-.6-5.5.1-1.3.6-3.4 1.5-3.2 2.9.1 1 1.8 1.5 2.8 1.4zM420 403.8c-3.6-4-5.3-11.6-7.2-19.7-1.8-8.1-3.9-16.8-10.5-22.4-1.3-1.1-2.6-2.1-4-2.9-1.3-.8-2.7-1.5-4.1-2 9.2-27.3 5.6-54.5-3.7-79.1-11.4-30.1-31.3-56.4-46.5-74.4-17.1-21.5-33.7-41.9-33.4-72C311.1 85.4 315.7.1 234.8 0 132.4-.2 158 103.4 156.9 135.2c-1.7 23.4-6.4 41.8-22.5 64.7-18.9 22.5-45.5 58.8-58.1 96.7-6 17.9-8.8 36.1-6.2 53.3-6.5 5.8-11.4 14.7-16.6 20.2-4.2 4.3-10.3 5.9-17 8.3s-14 6-18.5 14.5c-2.1 3.9-2.8 8.1-2.8 12.4 0 3.9.6 7.9 1.2 11.8 1.2 8.1 2.5 15.7.8 20.8-5.2 14.4-5.9 24.4-2.2 31.7 3.8 7.3 11.4 10.5 20.1 12.3 17.3 3.6 40.8 2.7 59.3 12.5 19.8 10.4 39.9 14.1 55.9 10.4 11.6-2.6 21.1-9.6 25.9-20.2 12.5-.1 26.3-5.4 48.3-6.6 14.9-1.2 33.6 5.3 55.1 4.1.6 2.3 1.4 4.6 2.5 6.7v.1c8.3 16.7 23.8 24.3 40.3 23 16.6-1.3 34.1-11 48.3-27.9 13.6-16.4 36-23.2 50.9-32.2 7.4-4.5 13.4-10.1 13.9-18.3.4-8.2-4.4-17.3-15.5-29.7zM223.7 87.3c9.8-22.2 34.2-21.8 44-.4 6.5 14.2 3.6 30.9-4.3 40.4-1.6-.8-5.9-2.6-12.6-4.9 1.1-1.2 3.1-2.7 3.9-4.6 4.8-11.8-.2-27-9.1-27.3-7.3-.5-13.9 10.8-11.8 23-4.1-2-9.4-3.5-13-4.4-1-6.9-.3-14.6 2.9-21.8zM183 75.8c10.1 0 20.8 14.2 19.1 33.5-3.5 1-7.1 2.5-10.2 4.6 1.2-8.9-3.3-20.1-9.6-19.6-8.4.7-9.8 21.2-1.8 28.1 1 .8 1.9-.2-5.9 5.5-15.6-14.6-10.5-52.1 8.4-52.1zm-13.6 60.7c6.2-4.6 13.6-10 14.1-10.5 4.7-4.4 13.5-14.2 27.9-14.2 7.1 0 15.6 2.3 25.9 8.9 6.3 4.1 11.3 4.4 22.6 9.3 8.4 3.5 13.7 9.7 10.5 18.2-2.6 7.1-11 14.4-22.7 18.1-11.1 3.6-19.8 16-38.2 14.9-3.9-.2-7-1-9.6-2.1-8-3.5-12.2-10.4-20-15-8.6-4.8-13.2-10.4-14.7-15.3-1.4-4.9 0-9 4.2-12.3zm3.3 334c-2.7 35.1-43.9 34.4-75.3 18-29.9-15.8-68.6-6.5-76.5-21.9-2.4-4.7-2.4-12.7 2.6-26.4v-.2c2.4-7.6.6-16-.6-23.9-1.2-7.8-1.8-15 .9-20 3.5-6.7 8.5-9.1 14.8-11.3 10.3-3.7 11.8-3.4 19.6-9.9 5.5-5.7 9.5-12.9 14.3-18 5.1-5.5 10-8.1 17.7-6.9 8.1 1.2 15.1 6.8 21.9 16l19.6 35.6c9.5 19.9 43.1 48.4 41 68.9zm-1.4-25.9c-4.1-6.6-9.6-13.6-14.4-19.6 7.1 0 14.2-2.2 16.7-8.9 2.3-6.2 0-14.9-7.4-24.9-13.5-18.2-38.3-32.5-38.3-32.5-13.5-8.4-21.1-18.7-24.6-29.9s-3-23.3-.3-35.2c5.2-22.9 18.6-45.2 27.2-59.2 2.3-1.7.8 3.2-8.7 20.8-8.5 16.1-24.4 53.3-2.6 82.4.6-20.7 5.5-41.8 13.8-61.5 12-27.4 37.3-74.9 39.3-112.7 1.1.8 4.6 3.2 6.2 4.1 4.6 2.7 8.1 6.7 12.6 10.3 12.4 10 28.5 9.2 42.4 1.2 6.2-3.5 11.2-7.5 15.9-9 9.9-3.1 17.8-8.6 22.3-15 7.7 30.4 25.7 74.3 37.2 95.7 6.1 11.4 18.3 35.5 23.6 64.6 3.3-.1 7 .4 10.9 1.4 13.8-35.7-11.7-74.2-23.3-84.9-4.7-4.6-4.9-6.6-2.6-6.5 12.6 11.2 29.2 33.7 35.2 59 2.8 11.6 3.3 23.7.4 35.7 16.4 6.8 35.9 17.9 30.7 34.8-2.2-.1-3.2 0-4.2 0 3.2-10.1-3.9-17.6-22.8-26.1-19.6-8.6-36-8.6-38.3 12.5-12.1 4.2-18.3 14.7-21.4 27.3-2.8 11.2-3.6 24.7-4.4 39.9-.5 7.7-3.6 18-6.8 29-32.1 22.9-76.7 32.9-114.3 7.2zm257.4-11.5c-.9 16.8-41.2 19.9-63.2 46.5-13.2 15.7-29.4 24.4-43.6 25.5s-26.5-4.8-33.7-19.3c-4.7-11.1-2.4-23.1 1.1-36.3 3.7-14.2 9.2-28.8 9.9-40.6.8-15.2 1.7-28.5 4.2-38.7 2.6-10.3 6.6-17.2 13.7-21.1.3-.2.7-.3 1-.5.8 13.2 7.3 26.6 18.8 29.5 12.6 3.3 30.7-7.5 38.4-16.3 9-.3 15.7-.9 22.6 5.1 9.9 8.5 7.1 30.3 17.1 41.6 10.6 11.6 14 19.5 13.7 24.6zM173.3 148.7c2 1.9 4.7 4.5 8 7.1 6.6 5.2 15.8 10.6 27.3 10.6 11.6 0 22.5-5.9 31.8-10.8 4.9-2.6 10.9-7 14.8-10.4s5.9-6.3 3.1-6.6-2.6 2.6-6 5.1c-4.4 3.2-9.7 7.4-13.9 9.8-7.4 4.2-19.5 10.2-29.9 10.2s-18.7-4.8-24.9-9.7c-3.1-2.5-5.7-5-7.7-6.9-1.5-1.4-1.9-4.6-4.3-4.9-1.4-.1-1.8 3.7 1.7 6.5z"></path>
</symbol>
<symbol id="figma" viewBox="0 0 512 512">
  <g>
    <path id="path0_fill" fill="#717171" d="M170.667,512C217.771,512,256,473.771,256,426.666v-85.334h-85.333
      c-47.104,0-85.333,38.229-85.333,85.334S123.563,512,170.667,512z"/>
    <path id="path1_fill" fill="#A6A6A6" d="M85.334,256c0-47.104,38.229-85.334,85.333-85.334H256v170.668h-85.333
      C123.563,341.332,85.334,303.104,85.334,256z"/>
    <path id="path1_fill_1_" fill="#7C7C7C" d="M85.334,85.332C85.334,38.229,123.563,0,170.667,0H256v170.666h-85.333
      C123.563,170.666,85.334,132.437,85.334,85.332z"/>
    <path id="path2_fill" fill="#A4A4A4" d="M256,0h85.334c47.104,0,85.332,38.229,85.332,85.332c0,47.104-38.229,85.334-85.332,85.334
      H256V0z"/>
    <path id="path3_fill" fill="#888888" d="M426.666,256c0,47.104-38.229,85.332-85.332,85.332S256,303.104,256,256
      c0-47.104,38.23-85.334,85.334-85.334S426.666,208.896,426.666,256z"/>
  </g>
</symbol>

<symbol id="3dsmax" viewBox="0 0 512 512">
<g>
	<polygon id="XMLID_10_" fill="#747474" points="331.817,511.813 95.469,511.813 51.966,407.976 178.385,363.806 62.922,256.093 
		181.484,149.155 51.966,104.209 95.469,0 331.817,0 460.034,256 	"/>
	<polygon id="XMLID_9_" fill="#707070" points="62.922,256.093 460.034,256 181.484,149.155 	"/>
	<polygon id="XMLID_8_" fill="#555555" points="460.034,256 226.43,104.209 51.966,104.209 181.484,149.155 	"/>
	<polygon id="XMLID_7_" fill="#707070" points="226.43,104.209 51.966,104.209 95.469,0 331.817,0 	"/>
	<polygon id="XMLID_6_" fill="#484848" points="226.43,104.209 331.817,0 460.034,256 	"/>
	<polygon id="XMLID_5_" opacity="0.9" fill="#4B4B4B" points="460.034,256 226.43,255.907 226.43,104.209 	"/>
	<polygon id="XMLID_4_" fill="#414141" points="460.034,256 226.43,407.789 51.966,407.789 181.484,362.844 	"/>
	<polygon id="XMLID_3_" fill="#6C6C6C" points="226.43,407.789 51.966,407.789 95.469,512 331.817,512 	"/>
	<polygon id="XMLID_2_" fill="#484848" points="226.43,407.789 331.817,512 460.034,256 	"/>
	<polygon id="XMLID_1_" opacity="0.9" fill="#4F4F4F" points="460.034,256 226.43,256.093 226.43,407.789 	"/>
</g>
</symbol>
<symbol id="ableton" viewBox="0 0 512 512">
	<path id="Icon" fill="#747474" d="M33.752,375.283c0,2.172-1.826,3.731-3.657,3.731H3.959c-2.126,0-3.959-1.561-3.959-3.731V136.735
		c0-1.561,1.833-3.43,3.959-3.43h26.146c1.833,0,3.659,1.869,3.659,3.43v238.549H33.752z M102.161,375.283
		c0,2.172-1.826,3.731-3.657,3.731H72.368c-2.126,0-3.948-1.561-3.948-3.731V136.735c0-1.561,1.822-3.43,3.948-3.43h26.146
		c1.833,0,3.659,1.869,3.659,3.43v238.549H102.161z M170.57,375.283c0,2.172-1.817,3.731-3.658,3.731h-26.147
		c-2.126,0-3.948-1.561-3.948-3.731V136.735c0-1.561,1.822-3.43,3.948-3.43h26.147c1.841,0,3.658,1.869,3.658,3.43V375.283z
		 M239.283,375.283c0,2.172-1.833,3.731-3.648,3.731h-26.147c-2.13,0-3.957-1.561-3.957-3.731V136.735
		c0-1.561,1.826-3.43,3.957-3.43h26.147c1.815,0,3.648,1.869,3.648,3.43V375.283z M508.352,132.984c2.123,0,3.648,1.896,3.648,3.751
		v26.897c0,2.19-1.518,4.057-3.648,4.057H276.37c-1.519,0-3.338-1.866-3.338-4.057v-26.897c0-1.869,1.829-3.751,3.338-3.751H508.352
		z M508.352,203.646c2.123,0,3.648,1.882,3.648,3.755v26.881c0,2.183-1.518,4.067-3.648,4.067H276.37
		c-1.519,0-3.338-1.885-3.338-4.067v-26.881c0-1.882,1.829-3.755,3.338-3.755H508.352z M508.352,273.984
		c2.123,0,3.648,1.876,3.648,3.755v26.872c0,2.213-1.518,4.088-3.648,4.088H276.37c-1.519,0-3.338-1.875-3.338-4.088v-26.872
		c0-1.888,1.829-3.755,3.338-3.755H508.352z M508.352,344.311c2.123,0,3.648,1.888,3.648,3.755v26.895
		c0,2.189-1.518,4.057-3.648,4.057H276.37c-1.519,0-3.338-1.866-3.338-4.057v-26.895c0-1.867,1.829-3.755,3.338-3.755H508.352z"/>
</symbol>
<symbol id="terragen" viewBox="0 0 512 512">
<g>
	<path fill="#747474" d="M0,396.321c0,0,46.08,1.261,82.9,0L255.19,115.12L0,396.321z"/>
	<path fill="#747474" d="M245.44,396.321H131.66L198.3,274.4l61.761,86.16L245.44,396.321z"/>
	<path fill="#747474" d="M512,396.321H295.82L186.92,243.53l79.641-128.41L512,396.321z"/>
</g>
</symbol>
</svg>